<svg xmlns="http://www.w3.org/2000/svg" id="export" class="canvas" preserveAspectRatio="xMidYMid meet" style="" width="197" height="1116"><rect id="background" fill="#fff" pointer-events="all" width="197" height="1116"/><g id="origin" transform="translate(8.941796875, 8.941796875009095) scale(1)"><g id="clusters" class="clusters"/><g id="edge-paths" class="edge-paths" style="pointer-events: none;"><defs><marker id="arrowhead" viewBox="0 0 10 10" refX="9" refY="5" markerUnits="strokeWidth" markerWidth="8" markerHeight="6" orient="auto" style="fill: rgb(0, 0, 0);"><path d="M 0 0 L 10 5 L 0 10 L 4 5 z" style="stroke-width: 1;"/></marker><marker id="arrowhead-select" viewBox="0 0 10 10" refX="9" refY="5" markerUnits="strokeWidth" markerWidth="8" markerHeight="6" orient="auto" style="fill: rgba(220, 0, 0, 0.9);"><path d="M 0 0 L 10 5 L 0 10 L 4 5 z" style="stroke-width: 1;"/></marker><marker id="arrowhead-hover" viewBox="0 0 10 10" refX="9" refY="5" markerUnits="strokeWidth" markerWidth="8" markerHeight="6" orient="auto" style="fill: rgba(220, 0, 0, 0.9);"><path d="M 0 0 L 10 5 L 0 10 L 4 5 z" style="stroke-width: 1;"/></marker></defs><path id="edge-serving_default_keras_tensor:0&#10;0" class="edge-path" d="M59.593023255813954,23L55.91085271317829,24.666666666666668C52.22868217054264,26.333333333333332,44.86434108527132,29.666666666666668,41.18217054263566,35C37.5,40.333333333333336,37.5,47.666666666666664,37.5,55C37.5,62.333333333333336,37.5,69.66666666666667,37.5,75C37.5,80.33333333333333,37.5,83.66666666666667,37.5,85.33333333333333L37.5,87" style="stroke: rgb(0, 0, 0); stroke-width: 1px; fill: none; marker-end: url(&quot;#arrowhead&quot;);"/><path id="edge-serving_default_keras_tensor:0&#10;0" class="edge-path" d="M110.40697674418604,23L114.0891472868217,24.666666666666668C117.77131782945736,26.333333333333332,125.1356589147287,29.666666666666668,128.81782945736435,35C132.5,40.333333333333336,132.5,47.666666666666664,132.5,55C132.5,62.333333333333336,132.5,69.66666666666667,132.5,76.91666666666667C132.5,84.16666666666667,132.5,91.33333333333333,132.5,100.5C132.5,109.66666666666667,132.5,120.83333333333333,132.5,136C132.5,151.16666666666666,132.5,170.33333333333334,132.5,187.5C132.5,204.66666666666666,132.5,219.83333333333334,132.5,232.66666666666666C132.5,245.5,132.5,256,132.5,268.5C132.5,281,132.5,295.5,132.5,306.4166666666667C132.5,317.3333333333333,132.5,324.6666666666667,132.5,328.3333333333333L132.5,332" style="stroke: rgb(0, 0, 0); stroke-width: 1px; fill: none; marker-end: url(&quot;#arrowhead&quot;);"/><path id="edge-sequential_1/lstm_1/Shape&#10;15" class="edge-path" d="M37.5,110L37.5,113.66666666666667C37.5,117.33333333333333,37.5,124.66666666666667,37.5,132C37.5,139.33333333333334,37.5,146.66666666666666,37.5,150.33333333333334L37.5,154" style="stroke: rgb(0, 0, 0); stroke-width: 1px; fill: none; marker-end: url(&quot;#arrowhead&quot;);"/><path id="edge-sequential_1/lstm_1/strided_slice&#10;16" class="edge-path" d="M37.5,225L37.5,226.66666666666666C37.5,228.33333333333334,37.5,231.66666666666666,37.5,235C37.5,238.33333333333334,37.5,241.66666666666666,37.5,243.33333333333334L37.5,245" style="stroke: rgb(0, 0, 0); stroke-width: 1px; fill: none; marker-end: url(&quot;#arrowhead&quot;);"/><path id="edge-sequential_1/lstm_1/transpose&#10;17" class="edge-path" d="M132.5,375L132.5,378.6666666666667C132.5,382.3333333333333,132.5,389.6666666666667,132.5,397C132.5,404.3333333333333,132.5,411.6666666666667,132.5,415.3333333333333L132.5,419" style="stroke: rgb(0, 0, 0); stroke-width: 1px; fill: none; marker-end: url(&quot;#arrowhead&quot;);"/><path id="edge-sequential_1/lstm_1/transpose1&#10;18" class="edge-path" d="M132.5,442L132.5,445.6666666666667C132.5,449.3333333333333,132.5,456.6666666666667,129.47101449275362,464C126.44202898550725,471.3333333333333,120.3840579710145,478.6666666666667,117.35507246376812,482.3333333333333L114.32608695652173,486" style="stroke: rgb(0, 0, 0); stroke-width: 1px; fill: none; marker-end: url(&quot;#arrowhead&quot;);"/><path id="edge-sequential_1/lstm_1/zeros/packed&#10;19" class="edge-path" d="M37.5,288L37.5,291.6666666666667C37.5,295.3333333333333,37.5,302.6666666666667,37.5,310C37.5,317.3333333333333,37.5,324.6666666666667,37.5,328.3333333333333L37.5,332" style="stroke: rgb(0, 0, 0); stroke-width: 1px; fill: none; marker-end: url(&quot;#arrowhead&quot;);"/><path id="edge-sequential_1/lstm_1/zeros&#10;20" class="edge-path" d="M37.5,375L37.5,378.6666666666667C37.5,382.3333333333333,37.5,389.6666666666667,37.5,397C37.5,404.3333333333333,37.5,411.6666666666667,37.5,415.3333333333333L37.5,419" style="stroke: rgb(0, 0, 0); stroke-width: 1px; fill: none; marker-end: url(&quot;#arrowhead&quot;);"/><path id="edge-tfl.dequantize&#10;21" class="edge-path" d="M37.5,442L37.5,445.6666666666667C37.5,449.3333333333333,37.5,456.6666666666667,40.528985507246375,464C43.55797101449275,471.3333333333333,49.61594202898551,478.6666666666667,52.64492753623188,482.3333333333333L55.673913043478265,486" style="stroke: rgb(0, 0, 0); stroke-width: 1px; fill: none; marker-end: url(&quot;#arrowhead&quot;);"/><path id="edge-sequential_1/lstm_1/while;sequential_1/lstm_1/while1;sequential_1/lstm_1/while2;sequential_1/lstm_1/while3;sequential_1/lstm_1/while4;sequential_1/lstm_1/while52&#10;24" class="edge-path" d="M85,557L85,560.6666666666666C85,564.3333333333334,85,571.6666666666666,85,579C85,586.3333333333334,85,593.6666666666666,85,597.3333333333334L85,601" style="stroke: rgb(0, 0, 0); stroke-width: 1px; fill: none; marker-end: url(&quot;#arrowhead&quot;);"/><path id="edge-tfl.quantize&#10;28" class="edge-path" d="M85,624L85,627.6666666666666C85,631.3333333333334,85,638.6666666666666,85,646C85,653.3333333333334,85,660.6666666666666,85,664.3333333333334L85,668" style="stroke: rgb(0, 0, 0); stroke-width: 1px; fill: none; marker-end: url(&quot;#arrowhead&quot;);"/><path id="edge-sequential_1/lstm_1/strided_slice_3&#10;29" class="edge-path" d="M85,739L85,742.6666666666666C85,746.3333333333334,85,753.6666666666666,85,761C85,768.3333333333334,85,775.6666666666666,85,779.3333333333334L85,783" style="stroke: rgb(0, 0, 0); stroke-width: 1px; fill: none; marker-end: url(&quot;#arrowhead&quot;);"/><path id="edge-sequential_1/dense_1/MatMul;sequential_1/dense_1/Relu;sequential_1/dense_1/BiasAdd&#10;30" class="edge-path" d="M85,863L85,866.6666666666666C85,870.3333333333334,85,877.6666666666666,85,885C85,892.3333333333334,85,899.6666666666666,85,903.3333333333334L85,907" style="stroke: rgb(0, 0, 0); stroke-width: 1px; fill: none; marker-end: url(&quot;#arrowhead&quot;);"/><path id="edge-sequential_1/dense_1_2/MatMul;sequential_1/dense_1_2/BiasAdd&#10;31" class="edge-path" d="M85,964L85,967.6666666666666C85,971.3333333333334,85,978.6666666666666,85,986C85,993.3333333333334,85,1000.6666666666666,85,1004.3333333333334L85,1008" style="stroke: rgb(0, 0, 0); stroke-width: 1px; fill: none; marker-end: url(&quot;#arrowhead&quot;);"/><path id="edge-StatefulPartitionedCall_1:0&#10;32" class="edge-path" d="M85,1031L85,1034.6666666666667C85,1038.3333333333333,85,1045.6666666666667,85,1053C85,1060.3333333333333,85,1067.6666666666667,85,1071.3333333333333L85,1075" style="stroke: rgb(0, 0, 0); stroke-width: 1px; fill: none; marker-end: url(&quot;#arrowhead&quot;);"/></g><g id="edge-labels" class="edge-labels"><text class="edge-label" id="edge-label-edge-serving_default_keras_tensor:0&#10;0" style="opacity: 1; font-family: -apple-system, BlinkMacSystemFont, &quot;Segoe WPC&quot;, &quot;Segoe UI&quot;, Ubuntu, &quot;Droid Sans&quot;, sans-serif, &quot;PingFang SC&quot;; font-size: 10px;" transform="translate(42.5,48)"><tspan xml:space="preserve" dy="1em" x="1">?×128×6</tspan></text><text class="edge-label" id="edge-label-edge-serving_default_keras_tensor:0&#10;0" style="opacity: 1; font-family: -apple-system, BlinkMacSystemFont, &quot;Segoe WPC&quot;, &quot;Segoe UI&quot;, Ubuntu, &quot;Droid Sans&quot;, sans-serif, &quot;PingFang SC&quot;; font-size: 10px;" transform="translate(137.5,125)"><tspan xml:space="preserve" dy="1em" x="1">?×128×6</tspan></text><text class="edge-label" id="edge-label-edge-sequential_1/lstm_1/Shape&#10;15" style="opacity: 1; font-family: -apple-system, BlinkMacSystemFont, &quot;Segoe WPC&quot;, &quot;Segoe UI&quot;, Ubuntu, &quot;Droid Sans&quot;, sans-serif, &quot;PingFang SC&quot;; font-size: 10px;" transform="translate(42.5,125)"><tspan xml:space="preserve" dy="1em" x="1">3</tspan></text><text class="edge-label" id="edge-label-edge-sequential_1/lstm_1/transpose&#10;17" style="opacity: 1; font-family: -apple-system, BlinkMacSystemFont, &quot;Segoe WPC&quot;, &quot;Segoe UI&quot;, Ubuntu, &quot;Droid Sans&quot;, sans-serif, &quot;PingFang SC&quot;; font-size: 10px;" transform="translate(137.5,390)"><tspan xml:space="preserve" dy="1em" x="1">128×?×6</tspan></text><text class="edge-label" id="edge-label-edge-sequential_1/lstm_1/transpose1&#10;18" style="opacity: 1; font-family: -apple-system, BlinkMacSystemFont, &quot;Segoe WPC&quot;, &quot;Segoe UI&quot;, Ubuntu, &quot;Droid Sans&quot;, sans-serif, &quot;PingFang SC&quot;; font-size: 10px;" transform="translate(137.5,457)"><tspan xml:space="preserve" dy="1em" x="1">128×?×6</tspan></text><text class="edge-label" id="edge-label-edge-sequential_1/lstm_1/zeros/packed&#10;19" style="opacity: 1; font-family: -apple-system, BlinkMacSystemFont, &quot;Segoe WPC&quot;, &quot;Segoe UI&quot;, Ubuntu, &quot;Droid Sans&quot;, sans-serif, &quot;PingFang SC&quot;; font-size: 10px;" transform="translate(42.5,303)"><tspan xml:space="preserve" dy="1em" x="1">2</tspan></text><text class="edge-label" id="edge-label-edge-sequential_1/lstm_1/zeros&#10;20" style="opacity: 1; font-family: -apple-system, BlinkMacSystemFont, &quot;Segoe WPC&quot;, &quot;Segoe UI&quot;, Ubuntu, &quot;Droid Sans&quot;, sans-serif, &quot;PingFang SC&quot;; font-size: 10px;" transform="translate(42.5,390)"><tspan xml:space="preserve" dy="1em" x="1">?×64</tspan></text><text class="edge-label" id="edge-label-edge-tfl.dequantize&#10;21" style="opacity: 1; font-family: -apple-system, BlinkMacSystemFont, &quot;Segoe WPC&quot;, &quot;Segoe UI&quot;, Ubuntu, &quot;Droid Sans&quot;, sans-serif, &quot;PingFang SC&quot;; font-size: 10px;" transform="translate(42.5,457)"><tspan xml:space="preserve" dy="1em" x="1">?×64</tspan></text><text class="edge-label" id="edge-label-edge-sequential_1/lstm_1/while;sequential_1/lstm_1/while1;sequential_1/lstm_1/while2;sequential_1/lstm_1/while3;sequential_1/lstm_1/while4;sequential_1/lstm_1/while52&#10;24" style="opacity: 1; font-family: -apple-system, BlinkMacSystemFont, &quot;Segoe WPC&quot;, &quot;Segoe UI&quot;, Ubuntu, &quot;Droid Sans&quot;, sans-serif, &quot;PingFang SC&quot;; font-size: 10px;" transform="translate(90,572)"><tspan xml:space="preserve" dy="1em" x="1">1×?×64</tspan></text><text class="edge-label" id="edge-label-edge-tfl.quantize&#10;28" style="opacity: 1; font-family: -apple-system, BlinkMacSystemFont, &quot;Segoe WPC&quot;, &quot;Segoe UI&quot;, Ubuntu, &quot;Droid Sans&quot;, sans-serif, &quot;PingFang SC&quot;; font-size: 10px;" transform="translate(90,639)"><tspan xml:space="preserve" dy="1em" x="1">1×?×64</tspan></text><text class="edge-label" id="edge-label-edge-sequential_1/lstm_1/strided_slice_3&#10;29" style="opacity: 1; font-family: -apple-system, BlinkMacSystemFont, &quot;Segoe WPC&quot;, &quot;Segoe UI&quot;, Ubuntu, &quot;Droid Sans&quot;, sans-serif, &quot;PingFang SC&quot;; font-size: 10px;" transform="translate(90,754)"><tspan xml:space="preserve" dy="1em" x="1">?×64</tspan></text><text class="edge-label" id="edge-label-edge-sequential_1/dense_1/MatMul;sequential_1/dense_1/Relu;sequential_1/dense_1/BiasAdd&#10;30" style="opacity: 1; font-family: -apple-system, BlinkMacSystemFont, &quot;Segoe WPC&quot;, &quot;Segoe UI&quot;, Ubuntu, &quot;Droid Sans&quot;, sans-serif, &quot;PingFang SC&quot;; font-size: 10px;" transform="translate(90,878)"><tspan xml:space="preserve" dy="1em" x="1">?×32</tspan></text><text class="edge-label" id="edge-label-edge-sequential_1/dense_1_2/MatMul;sequential_1/dense_1_2/BiasAdd&#10;31" style="opacity: 1; font-family: -apple-system, BlinkMacSystemFont, &quot;Segoe WPC&quot;, &quot;Segoe UI&quot;, Ubuntu, &quot;Droid Sans&quot;, sans-serif, &quot;PingFang SC&quot;; font-size: 10px;" transform="translate(90,979)"><tspan xml:space="preserve" dy="1em" x="1">?×7</tspan></text><text class="edge-label" id="edge-label-edge-StatefulPartitionedCall_1:0&#10;32" style="opacity: 1; font-family: -apple-system, BlinkMacSystemFont, &quot;Segoe WPC&quot;, &quot;Segoe UI&quot;, Ubuntu, &quot;Droid Sans&quot;, sans-serif, &quot;PingFang SC&quot;; font-size: 10px;" transform="translate(90,1046)"><tspan xml:space="preserve" dy="1em" x="1">?×7</tspan></text></g><g id="nodes" class="nodes"><g id="input-name-serving_default_keras_tensor:0" class="node graph-input" style="" transform="translate(4.60107421875,0)"><g class="node-item graph-item-input" transform="translate(0,0)"><path d="M5,0h150.7978515625a5,5 0 0 1 5,5v13a5,5 0 0 1 -5,5h-150.7978515625a5,5 0 0 1 -5,-5v-13a5,5 0 0 1 5,-5z" style="stroke: rgb(0, 0, 0); fill: rgb(238, 238, 238); stroke-width: 0;"/><text x="6" y="16" style="font-family: -apple-system, BlinkMacSystemFont, &quot;Segoe WPC&quot;, &quot;Segoe UI&quot;, Ubuntu, &quot;Droid Sans&quot;, sans-serif, &quot;PingFang SC&quot;; font-size: 11px; text-rendering: geometricprecision; user-select: none;">serving_default_keras_tensor:0</text><title>int8[-1,128,6]</title></g><path class="node node-border" d="M5,0h150.7978515625a5,5 0 0 1 5,5v13a5,5 0 0 1 -5,5h-150.7978515625a5,5 0 0 1 -5,-5v-13a5,5 0 0 1 5,-5z" style="stroke: rgb(51, 51, 51); fill: none; stroke-width: 1px;"/></g><g id="node-id-0" class="node graph-node" style="" transform="translate(15.433837890625,87)"><g class="node-item node-item-type" transform="translate(0,0)"><path d="M5,0h34.13232421875a5,5 0 0 1 5,5v13a5,5 0 0 1 -5,5h-34.13232421875a5,5 0 0 1 -5,-5v-13a5,5 0 0 1 5,-5z" style="stroke: rgb(0, 0, 0); fill: rgb(0, 0, 0); stroke-width: 0;"/><text x="6" y="16" style="font-family: -apple-system, BlinkMacSystemFont, &quot;Segoe WPC&quot;, &quot;Segoe UI&quot;, Ubuntu, &quot;Droid Sans&quot;, sans-serif, &quot;PingFang SC&quot;; font-size: 11px; text-rendering: geometricprecision; user-select: none; fill: rgb(255, 255, 255);">Shape</text><title>0</title></g><path class="node node-border" d="M5,0h34.13232421875a5,5 0 0 1 5,5v13a5,5 0 0 1 -5,5h-34.13232421875a5,5 0 0 1 -5,-5v-13a5,5 0 0 1 5,-5z" style="stroke: rgb(51, 51, 51); fill: none; stroke-width: 1px;"/></g><g id="node-id-1" class="node graph-node" style="" transform="translate(0,154)"><g class="node-item node-item-type node-item-type-tensor" transform="translate(0,0)"><path d="M5,0h65a5,5 0 0 1 5,5v18a0,0 0 0 1 0,0h-75a0,0 0 0 1 0,0v-18a5,5 0 0 1 5,-5z" style="stroke: rgb(0, 0, 0); fill: rgb(89, 66, 59); stroke-width: 0;"/><text x="6" y="16" style="font-family: -apple-system, BlinkMacSystemFont, &quot;Segoe WPC&quot;, &quot;Segoe UI&quot;, Ubuntu, &quot;Droid Sans&quot;, sans-serif, &quot;PingFang SC&quot;; font-size: 11px; text-rendering: geometricprecision; user-select: none; fill: rgb(255, 255, 255);">StridedSlice</text><title>1</title></g><g class="node-argument-list" transform="translate(0,23)"><path d="M0,0h75a0,0 0 0 1 0,0v43a5,5 0 0 1 -5,5h-65a5,5 0 0 1 -5,-5v-43a0,0 0 0 1 0,0z" style="stroke: rgb(0, 0, 0); fill: rgb(255, 255, 255); stroke-width: 0;"/><g class="node-argument"><rect rx="3" ry="3" x="3" y="3" width="69" height="14" style="fill: transparent;"/><text xml:space="preserve" x="6" y="14" style="font-family: -apple-system, BlinkMacSystemFont, &quot;Segoe WPC&quot;, &quot;Segoe UI&quot;, Ubuntu, &quot;Droid Sans&quot;, sans-serif, &quot;PingFang SC&quot;; font-size: 9px; font-weight: normal; text-rendering: geometricprecision; user-select: none;"><title>int32[1]</title><tspan style="font-weight: bold;">begin</tspan><tspan>〈1〉</tspan></text></g><g class="node-argument"><rect rx="3" ry="3" x="3" y="17" width="69" height="14" style="fill: transparent;"/><text xml:space="preserve" x="6" y="28" style="font-family: -apple-system, BlinkMacSystemFont, &quot;Segoe WPC&quot;, &quot;Segoe UI&quot;, Ubuntu, &quot;Droid Sans&quot;, sans-serif, &quot;PingFang SC&quot;; font-size: 9px; font-weight: normal; text-rendering: geometricprecision; user-select: none;"><title>int32[1]</title><tspan style="font-weight: bold;">end</tspan><tspan>〈1〉</tspan></text></g><g class="node-argument"><rect rx="3" ry="3" x="3" y="31" width="69" height="14" style="fill: transparent;"/><text xml:space="preserve" x="6" y="42" style="font-family: -apple-system, BlinkMacSystemFont, &quot;Segoe WPC&quot;, &quot;Segoe UI&quot;, Ubuntu, &quot;Droid Sans&quot;, sans-serif, &quot;PingFang SC&quot;; font-size: 9px; font-weight: normal; text-rendering: geometricprecision; user-select: none;"><title>int32[1]</title><tspan style="font-weight: bold;">strides</tspan><tspan>〈1〉</tspan></text></g><line class="node" x1="0" x2="75" y1="0" y2="0" style="stroke: rgb(51, 51, 51); fill: none; stroke-width: 1px;"/></g><path class="node node-border" d="M5,0h65a5,5 0 0 1 5,5v61a5,5 0 0 1 -5,5h-65a5,5 0 0 1 -5,-5v-61a5,5 0 0 1 5,-5z" style="stroke: rgb(51, 51, 51); fill: none; stroke-width: 1px;"/></g><g id="node-id-2" class="node graph-node" style="" transform="translate(95,332)"><g class="node-item node-item-type node-item-type-transform" transform="translate(0,0)"><path d="M5,0h65a5,5 0 0 1 5,5v18a0,0 0 0 1 0,0h-75a0,0 0 0 1 0,0v-18a5,5 0 0 1 5,-5z" style="stroke: rgb(0, 0, 0); fill: rgb(51, 85, 68); stroke-width: 0;"/><text x="6" y="16" style="font-family: -apple-system, BlinkMacSystemFont, &quot;Segoe WPC&quot;, &quot;Segoe UI&quot;, Ubuntu, &quot;Droid Sans&quot;, sans-serif, &quot;PingFang SC&quot;; font-size: 11px; text-rendering: geometricprecision; user-select: none; fill: rgb(255, 255, 255);">Transpose</text><title>2</title></g><g class="node-argument-list" transform="translate(0,23)"><path d="M0,0h75a0,0 0 0 1 0,0v15a5,5 0 0 1 -5,5h-65a5,5 0 0 1 -5,-5v-15a0,0 0 0 1 0,0z" style="stroke: rgb(0, 0, 0); fill: rgb(255, 255, 255); stroke-width: 0;"/><g class="node-argument"><rect rx="3" ry="3" x="3" y="3" width="69" height="14" style="fill: transparent;"/><text xml:space="preserve" x="6" y="14" style="font-family: -apple-system, BlinkMacSystemFont, &quot;Segoe WPC&quot;, &quot;Segoe UI&quot;, Ubuntu, &quot;Droid Sans&quot;, sans-serif, &quot;PingFang SC&quot;; font-size: 9px; font-weight: normal; text-rendering: geometricprecision; user-select: none;"><title>int32[3]</title><tspan style="font-weight: bold;">perm</tspan><tspan>〈3〉</tspan></text></g><line class="node" x1="0" x2="75" y1="0" y2="0" style="stroke: rgb(51, 51, 51); fill: none; stroke-width: 1px;"/></g><path class="node node-border" d="M5,0h65a5,5 0 0 1 5,5v33a5,5 0 0 1 -5,5h-65a5,5 0 0 1 -5,-5v-33a5,5 0 0 1 5,-5z" style="stroke: rgb(51, 51, 51); fill: none; stroke-width: 1px;"/></g><g id="node-id-3" class="node graph-node" style="" transform="translate(97.822509765625,419)"><g class="node-item node-item-type node-item-type-quantization" transform="translate(0,0)"><path d="M5,0h59.35498046875a5,5 0 0 1 5,5v13a5,5 0 0 1 -5,5h-59.35498046875a5,5 0 0 1 -5,-5v-13a5,5 0 0 1 5,-5z" style="stroke: rgb(0, 0, 0); fill: rgb(80, 40, 0); stroke-width: 0;"/><text x="6" y="16" style="font-family: -apple-system, BlinkMacSystemFont, &quot;Segoe WPC&quot;, &quot;Segoe UI&quot;, Ubuntu, &quot;Droid Sans&quot;, sans-serif, &quot;PingFang SC&quot;; font-size: 11px; text-rendering: geometricprecision; user-select: none; fill: rgb(255, 255, 255);">Dequantize</text><title>3</title></g><path class="node node-border" d="M5,0h59.35498046875a5,5 0 0 1 5,5v13a5,5 0 0 1 -5,5h-59.35498046875a5,5 0 0 1 -5,-5v-13a5,5 0 0 1 5,-5z" style="stroke: rgb(51, 51, 51); fill: none; stroke-width: 1px;"/></g><g id="node-id-4" class="node graph-node" style="" transform="translate(0,245)"><g class="node-item node-item-type" transform="translate(0,0)"><path d="M5,0h65a5,5 0 0 1 5,5v18a0,0 0 0 1 0,0h-75a0,0 0 0 1 0,0v-18a5,5 0 0 1 5,-5z" style="stroke: rgb(0, 0, 0); fill: rgb(0, 0, 0); stroke-width: 0;"/><text x="6" y="16" style="font-family: -apple-system, BlinkMacSystemFont, &quot;Segoe WPC&quot;, &quot;Segoe UI&quot;, Ubuntu, &quot;Droid Sans&quot;, sans-serif, &quot;PingFang SC&quot;; font-size: 11px; text-rendering: geometricprecision; user-select: none; fill: rgb(255, 255, 255);">Pack</text><title>4</title></g><g class="node-argument-list" transform="translate(0,23)"><path d="M0,0h75a0,0 0 0 1 0,0v15a5,5 0 0 1 -5,5h-65a5,5 0 0 1 -5,-5v-15a0,0 0 0 1 0,0z" style="stroke: rgb(0, 0, 0); fill: rgb(255, 255, 255); stroke-width: 0;"/><g class="node-argument"><rect rx="3" ry="3" x="3" y="3" width="69" height="14" style="fill: transparent;"/><text xml:space="preserve" x="6" y="14" style="font-family: -apple-system, BlinkMacSystemFont, &quot;Segoe WPC&quot;, &quot;Segoe UI&quot;, Ubuntu, &quot;Droid Sans&quot;, sans-serif, &quot;PingFang SC&quot;; font-size: 9px; font-weight: normal; text-rendering: geometricprecision; user-select: none;"><title>int32</title><tspan>2</tspan><tspan> = 64</tspan></text></g><line class="node" x1="0" x2="75" y1="0" y2="0" style="stroke: rgb(51, 51, 51); fill: none; stroke-width: 1px;"/></g><path class="node node-border" d="M5,0h65a5,5 0 0 1 5,5v33a5,5 0 0 1 -5,5h-65a5,5 0 0 1 -5,-5v-33a5,5 0 0 1 5,-5z" style="stroke: rgb(51, 51, 51); fill: none; stroke-width: 1px;"/></g><g id="node-id-5" class="node graph-node" style="" transform="translate(0,332)"><g class="node-item node-item-type" transform="translate(0,0)"><path d="M5,0h65a5,5 0 0 1 5,5v18a0,0 0 0 1 0,0h-75a0,0 0 0 1 0,0v-18a5,5 0 0 1 5,-5z" style="stroke: rgb(0, 0, 0); fill: rgb(0, 0, 0); stroke-width: 0;"/><text x="6" y="16" style="font-family: -apple-system, BlinkMacSystemFont, &quot;Segoe WPC&quot;, &quot;Segoe UI&quot;, Ubuntu, &quot;Droid Sans&quot;, sans-serif, &quot;PingFang SC&quot;; font-size: 11px; text-rendering: geometricprecision; user-select: none; fill: rgb(255, 255, 255);">Fill</text><title>5</title></g><g class="node-argument-list" transform="translate(0,23)"><path d="M0,0h75a0,0 0 0 1 0,0v15a5,5 0 0 1 -5,5h-65a5,5 0 0 1 -5,-5v-15a0,0 0 0 1 0,0z" style="stroke: rgb(0, 0, 0); fill: rgb(255, 255, 255); stroke-width: 0;"/><g class="node-argument"><rect rx="3" ry="3" x="3" y="3" width="69" height="14" style="fill: transparent;"/><text xml:space="preserve" x="6" y="14" style="font-family: -apple-system, BlinkMacSystemFont, &quot;Segoe WPC&quot;, &quot;Segoe UI&quot;, Ubuntu, &quot;Droid Sans&quot;, sans-serif, &quot;PingFang SC&quot;; font-size: 9px; font-weight: normal; text-rendering: geometricprecision; user-select: none;"><title>int8</title><tspan>value</tspan><tspan> = 0</tspan></text></g><line class="node" x1="0" x2="75" y1="0" y2="0" style="stroke: rgb(51, 51, 51); fill: none; stroke-width: 1px;"/></g><path class="node node-border" d="M5,0h65a5,5 0 0 1 5,5v33a5,5 0 0 1 -5,5h-65a5,5 0 0 1 -5,-5v-33a5,5 0 0 1 5,-5z" style="stroke: rgb(51, 51, 51); fill: none; stroke-width: 1px;"/></g><g id="node-id-6" class="node graph-node" style="" transform="translate(2.822509765625,419)"><g class="node-item node-item-type node-item-type-quantization" transform="translate(0,0)"><path d="M5,0h59.35498046875a5,5 0 0 1 5,5v13a5,5 0 0 1 -5,5h-59.35498046875a5,5 0 0 1 -5,-5v-13a5,5 0 0 1 5,-5z" style="stroke: rgb(0, 0, 0); fill: rgb(80, 40, 0); stroke-width: 0;"/><text x="6" y="16" style="font-family: -apple-system, BlinkMacSystemFont, &quot;Segoe WPC&quot;, &quot;Segoe UI&quot;, Ubuntu, &quot;Droid Sans&quot;, sans-serif, &quot;PingFang SC&quot;; font-size: 11px; text-rendering: geometricprecision; user-select: none; fill: rgb(255, 255, 255);">Dequantize</text><title>6</title></g><path class="node node-border" d="M5,0h59.35498046875a5,5 0 0 1 5,5v13a5,5 0 0 1 -5,5h-59.35498046875a5,5 0 0 1 -5,-5v-13a5,5 0 0 1 5,-5z" style="stroke: rgb(51, 51, 51); fill: none; stroke-width: 1px;"/></g><g id="node-id-7" class="node graph-node" style="" transform="translate(47.5,486)"><g class="node-item node-item-type" transform="translate(0,0)"><path d="M5,0h65a5,5 0 0 1 5,5v18a0,0 0 0 1 0,0h-75a0,0 0 0 1 0,0v-18a5,5 0 0 1 5,-5z" style="stroke: rgb(0, 0, 0); fill: rgb(0, 0, 0); stroke-width: 0;"/><text x="6" y="16" style="font-family: -apple-system, BlinkMacSystemFont, &quot;Segoe WPC&quot;, &quot;Segoe UI&quot;, Ubuntu, &quot;Droid Sans&quot;, sans-serif, &quot;PingFang SC&quot;; font-size: 11px; text-rendering: geometricprecision; user-select: none; fill: rgb(255, 255, 255);">While</text><title>7</title></g><g class="node-argument-list" transform="translate(0,23)"><path d="M0,0h75a0,0 0 0 1 0,0v43a5,5 0 0 1 -5,5h-65a5,5 0 0 1 -5,-5v-43a0,0 0 0 1 0,0z" style="stroke: rgb(0, 0, 0); fill: rgb(255, 255, 255); stroke-width: 0;"/><g class="node-argument"><rect rx="3" ry="3" x="3" y="3" width="69" height="14" style="fill: transparent;"/><text xml:space="preserve" x="6" y="14" style="font-family: -apple-system, BlinkMacSystemFont, &quot;Segoe WPC&quot;, &quot;Segoe UI&quot;, Ubuntu, &quot;Droid Sans&quot;, sans-serif, &quot;PingFang SC&quot;; font-size: 9px; font-weight: normal; text-rendering: geometricprecision; user-select: none;"><title>int32</title><tspan>1</tspan><tspan> = 0</tspan></text></g><g class="node-argument"><rect rx="3" ry="3" x="3" y="17" width="69" height="14" style="fill: transparent;"/><text xml:space="preserve" x="6" y="28" style="font-family: -apple-system, BlinkMacSystemFont, &quot;Segoe WPC&quot;, &quot;Segoe UI&quot;, Ubuntu, &quot;Droid Sans&quot;, sans-serif, &quot;PingFang SC&quot;; font-size: 9px; font-weight: normal; text-rendering: geometricprecision; user-select: none;"><title>int32</title><tspan>2</tspan><tspan> = 0</tspan></text></g><g class="node-argument"><rect rx="3" ry="3" x="3" y="31" width="69" height="14" style="fill: transparent;"/><text xml:space="preserve" x="6" y="42" style="font-family: -apple-system, BlinkMacSystemFont, &quot;Segoe WPC&quot;, &quot;Segoe UI&quot;, Ubuntu, &quot;Droid Sans&quot;, sans-serif, &quot;PingFang SC&quot;; font-size: 9px; font-weight: normal; text-rendering: geometricprecision; user-select: none;"><title>float32[1,1,64]</title><tspan style="font-weight: bold;">3</tspan><tspan>〈1×1×64〉</tspan></text></g><line class="node" x1="0" x2="75" y1="0" y2="0" style="stroke: rgb(51, 51, 51); fill: none; stroke-width: 1px;"/></g><path class="node node-border" d="M5,0h65a5,5 0 0 1 5,5v61a5,5 0 0 1 -5,5h-65a5,5 0 0 1 -5,-5v-61a5,5 0 0 1 5,-5z" style="stroke: rgb(51, 51, 51); fill: none; stroke-width: 1px;"/></g><g id="node-id-8" class="node graph-node" style="" transform="translate(56.1474609375,601)"><g class="node-item node-item-type node-item-type-quantization" transform="translate(0,0)"><path d="M5,0h47.705078125a5,5 0 0 1 5,5v13a5,5 0 0 1 -5,5h-47.705078125a5,5 0 0 1 -5,-5v-13a5,5 0 0 1 5,-5z" style="stroke: rgb(0, 0, 0); fill: rgb(80, 40, 0); stroke-width: 0;"/><text x="6" y="16" style="font-family: -apple-system, BlinkMacSystemFont, &quot;Segoe WPC&quot;, &quot;Segoe UI&quot;, Ubuntu, &quot;Droid Sans&quot;, sans-serif, &quot;PingFang SC&quot;; font-size: 11px; text-rendering: geometricprecision; user-select: none; fill: rgb(255, 255, 255);">Quantize</text><title>8</title></g><path class="node node-border" d="M5,0h47.705078125a5,5 0 0 1 5,5v13a5,5 0 0 1 -5,5h-47.705078125a5,5 0 0 1 -5,-5v-13a5,5 0 0 1 5,-5z" style="stroke: rgb(51, 51, 51); fill: none; stroke-width: 1px;"/></g><g id="node-id-9" class="node graph-node" style="" transform="translate(47.5,668)"><g class="node-item node-item-type node-item-type-tensor" transform="translate(0,0)"><path d="M5,0h65a5,5 0 0 1 5,5v18a0,0 0 0 1 0,0h-75a0,0 0 0 1 0,0v-18a5,5 0 0 1 5,-5z" style="stroke: rgb(0, 0, 0); fill: rgb(89, 66, 59); stroke-width: 0;"/><text x="6" y="16" style="font-family: -apple-system, BlinkMacSystemFont, &quot;Segoe WPC&quot;, &quot;Segoe UI&quot;, Ubuntu, &quot;Droid Sans&quot;, sans-serif, &quot;PingFang SC&quot;; font-size: 11px; text-rendering: geometricprecision; user-select: none; fill: rgb(255, 255, 255);">StridedSlice</text><title>9</title></g><g class="node-argument-list" transform="translate(0,23)"><path d="M0,0h75a0,0 0 0 1 0,0v43a5,5 0 0 1 -5,5h-65a5,5 0 0 1 -5,-5v-43a0,0 0 0 1 0,0z" style="stroke: rgb(0, 0, 0); fill: rgb(255, 255, 255); stroke-width: 0;"/><g class="node-argument"><rect rx="3" ry="3" x="3" y="3" width="69" height="14" style="fill: transparent;"/><text xml:space="preserve" x="6" y="14" style="font-family: -apple-system, BlinkMacSystemFont, &quot;Segoe WPC&quot;, &quot;Segoe UI&quot;, Ubuntu, &quot;Droid Sans&quot;, sans-serif, &quot;PingFang SC&quot;; font-size: 9px; font-weight: normal; text-rendering: geometricprecision; user-select: none;"><title>int32[3]</title><tspan style="font-weight: bold;">begin</tspan><tspan>〈3〉</tspan></text></g><g class="node-argument"><rect rx="3" ry="3" x="3" y="17" width="69" height="14" style="fill: transparent;"/><text xml:space="preserve" x="6" y="28" style="font-family: -apple-system, BlinkMacSystemFont, &quot;Segoe WPC&quot;, &quot;Segoe UI&quot;, Ubuntu, &quot;Droid Sans&quot;, sans-serif, &quot;PingFang SC&quot;; font-size: 9px; font-weight: normal; text-rendering: geometricprecision; user-select: none;"><title>int32[3]</title><tspan style="font-weight: bold;">end</tspan><tspan>〈3〉</tspan></text></g><g class="node-argument"><rect rx="3" ry="3" x="3" y="31" width="69" height="14" style="fill: transparent;"/><text xml:space="preserve" x="6" y="42" style="font-family: -apple-system, BlinkMacSystemFont, &quot;Segoe WPC&quot;, &quot;Segoe UI&quot;, Ubuntu, &quot;Droid Sans&quot;, sans-serif, &quot;PingFang SC&quot;; font-size: 9px; font-weight: normal; text-rendering: geometricprecision; user-select: none;"><title>int32[3]</title><tspan style="font-weight: bold;">strides</tspan><tspan>〈3〉</tspan></text></g><line class="node" x1="0" x2="75" y1="0" y2="0" style="stroke: rgb(51, 51, 51); fill: none; stroke-width: 1px;"/></g><path class="node node-border" d="M5,0h65a5,5 0 0 1 5,5v61a5,5 0 0 1 -5,5h-65a5,5 0 0 1 -5,-5v-61a5,5 0 0 1 5,-5z" style="stroke: rgb(51, 51, 51); fill: none; stroke-width: 1px;"/></g><g id="node-id-10" class="node graph-node" style="" transform="translate(40.203125,783)"><g class="node-item node-item-type node-item-type-layer" transform="translate(0,0)"><path d="M5,0h79.59375a5,5 0 0 1 5,5v18a0,0 0 0 1 0,0h-89.59375a0,0 0 0 1 0,0v-18a5,5 0 0 1 5,-5z" style="stroke: rgb(0, 0, 0); fill: rgb(51, 85, 136); stroke-width: 0;"/><text x="6" y="16" style="font-family: -apple-system, BlinkMacSystemFont, &quot;Segoe WPC&quot;, &quot;Segoe UI&quot;, Ubuntu, &quot;Droid Sans&quot;, sans-serif, &quot;PingFang SC&quot;; font-size: 11px; text-rendering: geometricprecision; user-select: none; fill: rgb(255, 255, 255);">FullyConnected</text><title>10</title></g><g class="node-argument-list" transform="translate(0,23)"><path d="M0,0h89.59375a0,0 0 0 1 0,0v34a0,0 0 0 1 0,0h-89.59375a0,0 0 0 1 0,0v-34a0,0 0 0 1 0,0z" style="stroke: rgb(0, 0, 0); fill: rgb(255, 255, 255); stroke-width: 0;"/><g class="node-argument"><rect rx="3" ry="3" x="3" y="3" width="83.59375" height="14" style="fill: transparent;"/><text xml:space="preserve" x="6" y="14" style="font-family: -apple-system, BlinkMacSystemFont, &quot;Segoe WPC&quot;, &quot;Segoe UI&quot;, Ubuntu, &quot;Droid Sans&quot;, sans-serif, &quot;PingFang SC&quot;; font-size: 9px; font-weight: normal; text-rendering: geometricprecision; user-select: none;"><title>int8[32,64]</title><tspan style="font-weight: bold;">weights</tspan><tspan>〈32×64〉</tspan></text></g><g class="node-argument"><rect rx="3" ry="3" x="3" y="17" width="83.59375" height="14" style="fill: transparent;"/><text xml:space="preserve" x="6" y="28" style="font-family: -apple-system, BlinkMacSystemFont, &quot;Segoe WPC&quot;, &quot;Segoe UI&quot;, Ubuntu, &quot;Droid Sans&quot;, sans-serif, &quot;PingFang SC&quot;; font-size: 9px; font-weight: normal; text-rendering: geometricprecision; user-select: none;"><title>int32[32]</title><tspan style="font-weight: bold;">bias</tspan><tspan>〈32〉</tspan></text></g><line class="node" x1="0" x2="89.59375" y1="0" y2="0" style="stroke: rgb(51, 51, 51); fill: none; stroke-width: 1px;"/></g><g class="node-item node-item-type node-item-type-activation" transform="translate(0,57)"><path d="M0,0h89.59375a0,0 0 0 1 0,0v18a5,5 0 0 1 -5,5h-79.59375a5,5 0 0 1 -5,-5v-18a0,0 0 0 1 0,0z" style="stroke: rgb(0, 0, 0); fill: rgb(112, 41, 33); stroke-width: 0;"/><text x="6" y="16" style="font-family: -apple-system, BlinkMacSystemFont, &quot;Segoe WPC&quot;, &quot;Segoe UI&quot;, Ubuntu, &quot;Droid Sans&quot;, sans-serif, &quot;PingFang SC&quot;; font-size: 11px; text-rendering: geometricprecision; user-select: none; fill: rgb(255, 255, 255);">Relu</text></g><line class="node" x1="0" x2="89.59375" y1="57" y2="57" style="stroke: rgb(51, 51, 51); fill: none; stroke-width: 1px;"/><path class="node node-border" d="M5,0h79.59375a5,5 0 0 1 5,5v70a5,5 0 0 1 -5,5h-79.59375a5,5 0 0 1 -5,-5v-70a5,5 0 0 1 5,-5z" style="stroke: rgb(51, 51, 51); fill: none; stroke-width: 1px;"/></g><g id="node-id-12" class="node graph-node" style="" transform="translate(40.625,907)"><g class="node-item node-item-type node-item-type-layer" transform="translate(0,0)"><path d="M5,0h78.75a5,5 0 0 1 5,5v18a0,0 0 0 1 0,0h-88.75a0,0 0 0 1 0,0v-18a5,5 0 0 1 5,-5z" style="stroke: rgb(0, 0, 0); fill: rgb(51, 85, 136); stroke-width: 0;"/><text x="6" y="16" style="font-family: -apple-system, BlinkMacSystemFont, &quot;Segoe WPC&quot;, &quot;Segoe UI&quot;, Ubuntu, &quot;Droid Sans&quot;, sans-serif, &quot;PingFang SC&quot;; font-size: 11px; text-rendering: geometricprecision; user-select: none; fill: rgb(255, 255, 255);">FullyConnected</text><title>11</title></g><g class="node-argument-list" transform="translate(0,23)"><path d="M0,0h88.75a0,0 0 0 1 0,0v29a5,5 0 0 1 -5,5h-78.75a5,5 0 0 1 -5,-5v-29a0,0 0 0 1 0,0z" style="stroke: rgb(0, 0, 0); fill: rgb(255, 255, 255); stroke-width: 0;"/><g class="node-argument"><rect rx="3" ry="3" x="3" y="3" width="82.75" height="14" style="fill: transparent;"/><text xml:space="preserve" x="6" y="14" style="font-family: -apple-system, BlinkMacSystemFont, &quot;Segoe WPC&quot;, &quot;Segoe UI&quot;, Ubuntu, &quot;Droid Sans&quot;, sans-serif, &quot;PingFang SC&quot;; font-size: 9px; font-weight: normal; text-rendering: geometricprecision; user-select: none;"><title>int8[7,32]</title><tspan style="font-weight: bold;">weights</tspan><tspan>〈7×32〉</tspan></text></g><g class="node-argument"><rect rx="3" ry="3" x="3" y="17" width="82.75" height="14" style="fill: transparent;"/><text xml:space="preserve" x="6" y="28" style="font-family: -apple-system, BlinkMacSystemFont, &quot;Segoe WPC&quot;, &quot;Segoe UI&quot;, Ubuntu, &quot;Droid Sans&quot;, sans-serif, &quot;PingFang SC&quot;; font-size: 9px; font-weight: normal; text-rendering: geometricprecision; user-select: none;"><title>int32[7]</title><tspan style="font-weight: bold;">bias</tspan><tspan>〈7〉</tspan></text></g><line class="node" x1="0" x2="88.75" y1="0" y2="0" style="stroke: rgb(51, 51, 51); fill: none; stroke-width: 1px;"/></g><path class="node node-border" d="M5,0h78.75a5,5 0 0 1 5,5v47a5,5 0 0 1 -5,5h-78.75a5,5 0 0 1 -5,-5v-47a5,5 0 0 1 5,-5z" style="stroke: rgb(51, 51, 51); fill: none; stroke-width: 1px;"/></g><g id="node-id-13" class="node graph-node" style="" transform="translate(57.734619140625,1008)"><g class="node-item node-item-type node-item-type-activation" transform="translate(0,0)"><path d="M5,0h44.53076171875a5,5 0 0 1 5,5v13a5,5 0 0 1 -5,5h-44.53076171875a5,5 0 0 1 -5,-5v-13a5,5 0 0 1 5,-5z" style="stroke: rgb(0, 0, 0); fill: rgb(112, 41, 33); stroke-width: 0;"/><text x="6" y="16" style="font-family: -apple-system, BlinkMacSystemFont, &quot;Segoe WPC&quot;, &quot;Segoe UI&quot;, Ubuntu, &quot;Droid Sans&quot;, sans-serif, &quot;PingFang SC&quot;; font-size: 11px; text-rendering: geometricprecision; user-select: none; fill: rgb(255, 255, 255);">Softmax</text><title>12</title></g><path class="node node-border" d="M5,0h44.53076171875a5,5 0 0 1 5,5v13a5,5 0 0 1 -5,5h-44.53076171875a5,5 0 0 1 -5,-5v-13a5,5 0 0 1 5,-5z" style="stroke: rgb(51, 51, 51); fill: none; stroke-width: 1px;"/></g><g class="node" style="" transform="translate(14.93505859375,1075)"><g class="node-item graph-item-output" transform="translate(0,0)"><path d="M5,0h130.1298828125a5,5 0 0 1 5,5v13a5,5 0 0 1 -5,5h-130.1298828125a5,5 0 0 1 -5,-5v-13a5,5 0 0 1 5,-5z" style="stroke: rgb(0, 0, 0); fill: rgb(238, 238, 238); stroke-width: 0;"/><text x="6" y="16" style="font-family: -apple-system, BlinkMacSystemFont, &quot;Segoe WPC&quot;, &quot;Segoe UI&quot;, Ubuntu, &quot;Droid Sans&quot;, sans-serif, &quot;PingFang SC&quot;; font-size: 11px; text-rendering: geometricprecision; user-select: none;">StatefulPartitionedCall_1:0</text><title>int8[-1,7]</title></g><path class="node node-border" d="M5,0h130.1298828125a5,5 0 0 1 5,5v13a5,5 0 0 1 -5,5h-130.1298828125a5,5 0 0 1 -5,-5v-13a5,5 0 0 1 5,-5z" style="stroke: rgb(51, 51, 51); fill: none; stroke-width: 1px;"/></g></g></g></svg>