<svg xmlns="http://www.w3.org/2000/svg" id="export" class="canvas" preserveAspectRatio="xMidYMid meet" style="" width="693" height="212"><rect id="background" fill="#fff" pointer-events="all" width="693" height="212"/><g id="origin" transform="translate(9.600000000000001, 9.600000000000001) scale(1)"><g id="clusters" class="clusters"/><g id="edge-paths" class="edge-paths" style="pointer-events: none;"><defs><marker id="arrowhead" viewBox="0 0 10 10" refX="9" refY="5" markerUnits="strokeWidth" markerWidth="8" markerHeight="6" orient="auto" style="fill: rgb(0, 0, 0);"><path d="M 0 0 L 10 5 L 0 10 L 4 5 z" style="stroke-width: 1;"/></marker><marker id="arrowhead-select" viewBox="0 0 10 10" refX="9" refY="5" markerUnits="strokeWidth" markerWidth="8" markerHeight="6" orient="auto" style="fill: rgba(220, 0, 0, 0.9);"><path d="M 0 0 L 10 5 L 0 10 L 4 5 z" style="stroke-width: 1;"/></marker><marker id="arrowhead-hover" viewBox="0 0 10 10" refX="9" refY="5" markerUnits="strokeWidth" markerWidth="8" markerHeight="6" orient="auto" style="fill: rgba(220, 0, 0, 0.9);"><path d="M 0 0 L 10 5 L 0 10 L 4 5 z" style="stroke-width: 1;"/></marker></defs><path id="edge-sequential_1/lstm_1/while_cond_arg0&#10;0" class="edge-path" d="M163.209716796875,23L163.209716796875,24.666666666666668C163.209716796875,26.333333333333332,163.209716796875,29.666666666666668,163.209716796875,33C163.209716796875,36.333333333333336,163.209716796875,39.666666666666664,163.209716796875,43C163.209716796875,46.333333333333336,163.209716796875,49.666666666666664,163.209716796875,53C163.209716796875,56.333333333333336,163.209716796875,59.666666666666664,163.209716796875,61.333333333333336L163.209716796875,63" style="stroke: rgb(0, 0, 0); stroke-width: 1px; fill: none; marker-end: url(&quot;#arrowhead&quot;);"/><path id="edge-sequential_1/lstm_1/while_cond_arg1&#10;1" class="edge-path" d="M47.7265625,23L47.7265625,24.666666666666668C47.7265625,26.333333333333332,47.7265625,29.666666666666668,47.7265625,33C47.7265625,36.333333333333336,47.7265625,39.666666666666664,47.7265625,43C47.7265625,46.333333333333336,47.7265625,49.666666666666664,47.7265625,53C47.7265625,56.333333333333336,47.7265625,59.666666666666664,47.7265625,61.333333333333336L47.7265625,63" style="stroke: rgb(0, 0, 0); stroke-width: 1px; fill: none; marker-end: url(&quot;#arrowhead&quot;);"/><path id="edge-sequential_1/lstm_1/while/Less&#10;7" class="edge-path" d="M47.7265625,106L47.7265625,107.66666666666667C47.7265625,109.33333333333333,47.7265625,112.66666666666667,52.20265375181686,116C56.67874500363373,119.33333333333333,65.63092750726744,122.66666666666667,70.10701875908431,124.33333333333333L74.58311001090117,126" style="stroke: rgb(0, 0, 0); stroke-width: 1px; fill: none; marker-end: url(&quot;#arrowhead&quot;);"/><path id="edge-sequential_1/lstm_1/while/Less_1&#10;8" class="edge-path" d="M163.209716796875,106L163.209716796875,107.66666666666667C163.209716796875,109.33333333333333,163.209716796875,112.66666666666667,158.73362554505815,116C154.2575342932413,119.33333333333333,145.30535178960756,122.66666666666667,140.8292605377907,124.33333333333333L136.35316928597385,126" style="stroke: rgb(0, 0, 0); stroke-width: 1px; fill: none; marker-end: url(&quot;#arrowhead&quot;);"/><path id="edge-sequential_1/lstm_1/while/LogicalAnd&#10;9" class="edge-path" d="M105.4681396484375,149L105.4681396484375,150.66666666666666C105.4681396484375,152.33333333333334,105.4681396484375,155.66666666666666,105.4681396484375,159C105.4681396484375,162.33333333333334,105.4681396484375,165.66666666666666,105.4681396484375,167.33333333333334L105.4681396484375,169" style="stroke: rgb(0, 0, 0); stroke-width: 1px; fill: none; marker-end: url(&quot;#arrowhead&quot;);"/></g><g id="edge-labels" class="edge-labels"/><g id="nodes" class="nodes"><g id="input-name-while_cond_arg0" class="node graph-input" style="" transform="translate(115.453125,0)"><g class="node-item graph-item-input" transform="translate(0,0)"><path d="M5,0h85.51318359375a5,5 0 0 1 5,5v13a5,5 0 0 1 -5,5h-85.51318359375a5,5 0 0 1 -5,-5v-13a5,5 0 0 1 5,-5z" style="stroke: rgb(0, 0, 0); fill: rgb(238, 238, 238); stroke-width: 0;"/><text x="6" y="16" style="font-family: -apple-system, BlinkMacSystemFont, &quot;Segoe WPC&quot;, &quot;Segoe UI&quot;, Ubuntu, &quot;Droid Sans&quot;, sans-serif, &quot;PingFang SC&quot;; font-size: 11px; text-rendering: geometricprecision; user-select: none;">while_cond_arg0</text><title>int32</title></g><path class="node node-border" d="M5,0h85.51318359375a5,5 0 0 1 5,5v13a5,5 0 0 1 -5,5h-85.51318359375a5,5 0 0 1 -5,-5v-13a5,5 0 0 1 5,-5z" style="stroke: rgb(51, 51, 51); fill: none; stroke-width: 1px;"/></g><g id="input-name-while_cond_arg1" class="node graph-input" style="" transform="translate(0,0)"><g class="node-item graph-item-input" transform="translate(0,0)"><path d="M5,0h85.453125a5,5 0 0 1 5,5v13a5,5 0 0 1 -5,5h-85.453125a5,5 0 0 1 -5,-5v-13a5,5 0 0 1 5,-5z" style="stroke: rgb(0, 0, 0); fill: rgb(238, 238, 238); stroke-width: 0;"/><text x="6" y="16" style="font-family: -apple-system, BlinkMacSystemFont, &quot;Segoe WPC&quot;, &quot;Segoe UI&quot;, Ubuntu, &quot;Droid Sans&quot;, sans-serif, &quot;PingFang SC&quot;; font-size: 11px; text-rendering: geometricprecision; user-select: none;">while_cond_arg1</text><title>int32</title></g><path class="node node-border" d="M5,0h85.453125a5,5 0 0 1 5,5v13a5,5 0 0 1 -5,5h-85.453125a5,5 0 0 1 -5,-5v-13a5,5 0 0 1 5,-5z" style="stroke: rgb(51, 51, 51); fill: none; stroke-width: 1px;"/></g><g id="input-name-while_cond_arg2" class="node graph-input" style="" transform="translate(230.96630859375,0)"><g class="node-item graph-item-input" transform="translate(0,0)"><path d="M5,0h85.51318359375a5,5 0 0 1 5,5v13a5,5 0 0 1 -5,5h-85.51318359375a5,5 0 0 1 -5,-5v-13a5,5 0 0 1 5,-5z" style="stroke: rgb(0, 0, 0); fill: rgb(238, 238, 238); stroke-width: 0;"/><text x="6" y="16" style="font-family: -apple-system, BlinkMacSystemFont, &quot;Segoe WPC&quot;, &quot;Segoe UI&quot;, Ubuntu, &quot;Droid Sans&quot;, sans-serif, &quot;PingFang SC&quot;; font-size: 11px; text-rendering: geometricprecision; user-select: none;">while_cond_arg2</text><title>float32[1,-1,64]</title></g><path class="node node-border" d="M5,0h85.51318359375a5,5 0 0 1 5,5v13a5,5 0 0 1 -5,5h-85.51318359375a5,5 0 0 1 -5,-5v-13a5,5 0 0 1 5,-5z" style="stroke: rgb(51, 51, 51); fill: none; stroke-width: 1px;"/></g><g id="input-name-while_cond_arg3" class="node graph-input" style="" transform="translate(346.4794921875,0)"><g class="node-item graph-item-input" transform="translate(0,0)"><path d="M5,0h85.51318359375a5,5 0 0 1 5,5v13a5,5 0 0 1 -5,5h-85.51318359375a5,5 0 0 1 -5,-5v-13a5,5 0 0 1 5,-5z" style="stroke: rgb(0, 0, 0); fill: rgb(238, 238, 238); stroke-width: 0;"/><text x="6" y="16" style="font-family: -apple-system, BlinkMacSystemFont, &quot;Segoe WPC&quot;, &quot;Segoe UI&quot;, Ubuntu, &quot;Droid Sans&quot;, sans-serif, &quot;PingFang SC&quot;; font-size: 11px; text-rendering: geometricprecision; user-select: none;">while_cond_arg3</text><title>float32[-1,64]</title></g><path class="node node-border" d="M5,0h85.51318359375a5,5 0 0 1 5,5v13a5,5 0 0 1 -5,5h-85.51318359375a5,5 0 0 1 -5,-5v-13a5,5 0 0 1 5,-5z" style="stroke: rgb(51, 51, 51); fill: none; stroke-width: 1px;"/></g><g id="input-name-while_cond_arg4" class="node graph-input" style="" transform="translate(461.99267578125,0)"><g class="node-item graph-item-input" transform="translate(0,0)"><path d="M5,0h85.51318359375a5,5 0 0 1 5,5v13a5,5 0 0 1 -5,5h-85.51318359375a5,5 0 0 1 -5,-5v-13a5,5 0 0 1 5,-5z" style="stroke: rgb(0, 0, 0); fill: rgb(238, 238, 238); stroke-width: 0;"/><text x="6" y="16" style="font-family: -apple-system, BlinkMacSystemFont, &quot;Segoe WPC&quot;, &quot;Segoe UI&quot;, Ubuntu, &quot;Droid Sans&quot;, sans-serif, &quot;PingFang SC&quot;; font-size: 11px; text-rendering: geometricprecision; user-select: none;">while_cond_arg4</text><title>float32[-1,64]</title></g><path class="node node-border" d="M5,0h85.51318359375a5,5 0 0 1 5,5v13a5,5 0 0 1 -5,5h-85.51318359375a5,5 0 0 1 -5,-5v-13a5,5 0 0 1 5,-5z" style="stroke: rgb(51, 51, 51); fill: none; stroke-width: 1px;"/></g><g id="input-name-while_cond_arg5" class="node graph-input" style="" transform="translate(577.505859375,0)"><g class="node-item graph-item-input" transform="translate(0,0)"><path d="M5,0h85.51318359375a5,5 0 0 1 5,5v13a5,5 0 0 1 -5,5h-85.51318359375a5,5 0 0 1 -5,-5v-13a5,5 0 0 1 5,-5z" style="stroke: rgb(0, 0, 0); fill: rgb(238, 238, 238); stroke-width: 0;"/><text x="6" y="16" style="font-family: -apple-system, BlinkMacSystemFont, &quot;Segoe WPC&quot;, &quot;Segoe UI&quot;, Ubuntu, &quot;Droid Sans&quot;, sans-serif, &quot;PingFang SC&quot;; font-size: 11px; text-rendering: geometricprecision; user-select: none;">while_cond_arg5</text><title>float32[128,-1,6]</title></g><path class="node node-border" d="M5,0h85.51318359375a5,5 0 0 1 5,5v13a5,5 0 0 1 -5,5h-85.51318359375a5,5 0 0 1 -5,-5v-13a5,5 0 0 1 5,-5z" style="stroke: rgb(51, 51, 51); fill: none; stroke-width: 1px;"/></g><g id="node-id-0" class="node graph-node" style="" transform="translate(10.2265625,63)"><g class="node-item node-item-type" transform="translate(0,0)"><path d="M5,0h65a5,5 0 0 1 5,5v18a0,0 0 0 1 0,0h-75a0,0 0 0 1 0,0v-18a5,5 0 0 1 5,-5z" style="stroke: rgb(0, 0, 0); fill: rgb(0, 0, 0); stroke-width: 0;"/><text x="6" y="16" style="font-family: -apple-system, BlinkMacSystemFont, &quot;Segoe WPC&quot;, &quot;Segoe UI&quot;, Ubuntu, &quot;Droid Sans&quot;, sans-serif, &quot;PingFang SC&quot;; font-size: 11px; text-rendering: geometricprecision; user-select: none; fill: rgb(255, 255, 255);">Less</text><title>0</title></g><g class="node-argument-list" transform="translate(0,23)"><path d="M0,0h75a0,0 0 0 1 0,0v15a5,5 0 0 1 -5,5h-65a5,5 0 0 1 -5,-5v-15a0,0 0 0 1 0,0z" style="stroke: rgb(0, 0, 0); fill: rgb(255, 255, 255); stroke-width: 0;"/><g class="node-argument"><rect rx="3" ry="3" x="3" y="3" width="69" height="14" style="fill: transparent;"/><text xml:space="preserve" x="6" y="14" style="font-family: -apple-system, BlinkMacSystemFont, &quot;Segoe WPC&quot;, &quot;Segoe UI&quot;, Ubuntu, &quot;Droid Sans&quot;, sans-serif, &quot;PingFang SC&quot;; font-size: 9px; font-weight: normal; text-rendering: geometricprecision; user-select: none;"><title>int32</title><tspan>2</tspan><tspan> = 128</tspan></text></g><line class="node" x1="0" x2="75" y1="0" y2="0" style="stroke: rgb(51, 51, 51); fill: none; stroke-width: 1px;"/></g><path class="node node-border" d="M5,0h65a5,5 0 0 1 5,5v33a5,5 0 0 1 -5,5h-65a5,5 0 0 1 -5,-5v-33a5,5 0 0 1 5,-5z" style="stroke: rgb(51, 51, 51); fill: none; stroke-width: 1px;"/></g><g id="node-id-1" class="node graph-node" style="" transform="translate(125.709716796875,63)"><g class="node-item node-item-type" transform="translate(0,0)"><path d="M5,0h65a5,5 0 0 1 5,5v18a0,0 0 0 1 0,0h-75a0,0 0 0 1 0,0v-18a5,5 0 0 1 5,-5z" style="stroke: rgb(0, 0, 0); fill: rgb(0, 0, 0); stroke-width: 0;"/><text x="6" y="16" style="font-family: -apple-system, BlinkMacSystemFont, &quot;Segoe WPC&quot;, &quot;Segoe UI&quot;, Ubuntu, &quot;Droid Sans&quot;, sans-serif, &quot;PingFang SC&quot;; font-size: 11px; text-rendering: geometricprecision; user-select: none; fill: rgb(255, 255, 255);">Less</text><title>1</title></g><g class="node-argument-list" transform="translate(0,23)"><path d="M0,0h75a0,0 0 0 1 0,0v15a5,5 0 0 1 -5,5h-65a5,5 0 0 1 -5,-5v-15a0,0 0 0 1 0,0z" style="stroke: rgb(0, 0, 0); fill: rgb(255, 255, 255); stroke-width: 0;"/><g class="node-argument"><rect rx="3" ry="3" x="3" y="3" width="69" height="14" style="fill: transparent;"/><text xml:space="preserve" x="6" y="14" style="font-family: -apple-system, BlinkMacSystemFont, &quot;Segoe WPC&quot;, &quot;Segoe UI&quot;, Ubuntu, &quot;Droid Sans&quot;, sans-serif, &quot;PingFang SC&quot;; font-size: 9px; font-weight: normal; text-rendering: geometricprecision; user-select: none;"><title>int32</title><tspan>2</tspan><tspan> = 128</tspan></text></g><line class="node" x1="0" x2="75" y1="0" y2="0" style="stroke: rgb(51, 51, 51); fill: none; stroke-width: 1px;"/></g><path class="node node-border" d="M5,0h65a5,5 0 0 1 5,5v33a5,5 0 0 1 -5,5h-65a5,5 0 0 1 -5,-5v-33a5,5 0 0 1 5,-5z" style="stroke: rgb(51, 51, 51); fill: none; stroke-width: 1px;"/></g><g id="node-id-2" class="node graph-node" style="" transform="translate(71.5150146484375,126)"><g class="node-item node-item-type" transform="translate(0,0)"><path d="M5,0h57.90625a5,5 0 0 1 5,5v13a5,5 0 0 1 -5,5h-57.90625a5,5 0 0 1 -5,-5v-13a5,5 0 0 1 5,-5z" style="stroke: rgb(0, 0, 0); fill: rgb(0, 0, 0); stroke-width: 0;"/><text x="6" y="16" style="font-family: -apple-system, BlinkMacSystemFont, &quot;Segoe WPC&quot;, &quot;Segoe UI&quot;, Ubuntu, &quot;Droid Sans&quot;, sans-serif, &quot;PingFang SC&quot;; font-size: 11px; text-rendering: geometricprecision; user-select: none; fill: rgb(255, 255, 255);">LogicalAnd</text><title>2</title></g><path class="node node-border" d="M5,0h57.90625a5,5 0 0 1 5,5v13a5,5 0 0 1 -5,5h-57.90625a5,5 0 0 1 -5,-5v-13a5,5 0 0 1 5,-5z" style="stroke: rgb(51, 51, 51); fill: none; stroke-width: 1px;"/></g><g class="node" style="" transform="translate(71.5150146484375,169)"><g class="node-item graph-item-output" transform="translate(0,0)"><path d="M5,0h57.90625a5,5 0 0 1 5,5v13a5,5 0 0 1 -5,5h-57.90625a5,5 0 0 1 -5,-5v-13a5,5 0 0 1 5,-5z" style="stroke: rgb(0, 0, 0); fill: rgb(238, 238, 238); stroke-width: 0;"/><text x="6" y="16" style="font-family: -apple-system, BlinkMacSystemFont, &quot;Segoe WPC&quot;, &quot;Segoe UI&quot;, Ubuntu, &quot;Droid Sans&quot;, sans-serif, &quot;PingFang SC&quot;; font-size: 11px; text-rendering: geometricprecision; user-select: none;">LogicalAnd</text><title>boolean</title></g><path class="node node-border" d="M5,0h57.90625a5,5 0 0 1 5,5v13a5,5 0 0 1 -5,5h-57.90625a5,5 0 0 1 -5,-5v-13a5,5 0 0 1 5,-5z" style="stroke: rgb(51, 51, 51); fill: none; stroke-width: 1px;"/></g></g></g></svg>